HIERARCHY
ROOT root
{
	OFFSET	0	13.1	24.9
	CHANNELS 6  Xposition Yposition Zposition Xrotation Yrotation Zrotation
	JOINT spine_1
	{
		OFFSET	0	9.99999	0
		CHANNELS 3  Xrotation Yrotation Zrotation
		JOINT spine_2
		{
			OFFSET	0	112	-10
			CHANNELS 3  Xrotation Yrotation Zrotation
			JOINT spine_3
			{
				OFFSET	0	206.5	19.3
				CHANNELS 3  Xrotation Yrotation Zrotation
				JOINT spine_4
				{
					OFFSET	0	110.4	14.6
					CHANNELS 3  Xrotation Yrotation Zrotation
					JOINT neck_1
					{
						OFFSET	0	71.8	-50.3
						CHANNELS 3  Xrotation Yrotation Zrotation
						JOINT neck_2
						{
							OFFSET	0	86.2	-25.8
							CHANNELS 3  Xrotation Yrotation Zrotation
							JOINT head_ee
							{
								OFFSET	0	179.8	-8.7
								CHANNELS 3  Xrotation Yrotation Zrotation
								End Site
								{
									OFFSET	1	0	0
								}
							}
						}
					}
					JOINT left_clavicle
					{
						OFFSET	-43.2	22.4	-70.8
						CHANNELS 3  Xrotation Yrotation Zrotation
						JOINT left_shoulder
						{
							OFFSET	-93.9	-5.79999	48.7
							CHANNELS 3  Xrotation Yrotation Zrotation
							JOINT left_elbow
							{
								OFFSET	-291.4	-30.8	15.2
								CHANNELS 3  Xrotation Yrotation Zrotation
								JOINT left_lowarm_twist
								{
									OFFSET	-110.7	-3.89999	13.6
									CHANNELS 3  Xrotation Yrotation Zrotation
									JOINT left_hand
									{
										OFFSET	-110.7	-3.89999	13.6
										CHANNELS 3  Xrotation Yrotation Zrotation
										JOINT left_ee
										{
											OFFSET	-80.8	-5.10001	12.1
											CHANNELS 3  Xrotation Yrotation Zrotation
											End Site
											{
												OFFSET	1	0	0
											}
										}
									}
								}
							}
						}
					}
					JOINT right_clavicle
					{
						OFFSET	43.2	22.4	-70.8
						CHANNELS 3  Xrotation Yrotation Zrotation
						JOINT right_shoulder
						{
							OFFSET	93.9	-5.79999	48.7
							CHANNELS 3  Xrotation Yrotation Zrotation
							JOINT right_elbow
							{
								OFFSET	291.4	-30.8	15.2
								CHANNELS 3  Xrotation Yrotation Zrotation
								JOINT right_lowarm_twist
								{
									OFFSET	110.7	-3.89999	13.6
									CHANNELS 3  Xrotation Yrotation Zrotation
									JOINT right_hand
									{
										OFFSET	110.7	-3.89999	13.6
										CHANNELS 3  Xrotation Yrotation Zrotation
										JOINT right_ee
										{
											OFFSET	80.8	-5.10001	12.1
											CHANNELS 3  Xrotation Yrotation Zrotation
											End Site
											{
												OFFSET	1	0	0
											}
										}
									}
								}
							}
						}
					}
				}
			}
		}
	}
	JOINT left_hip
	{
		OFFSET	-82.8	-127.5	0.300001
		CHANNELS 3  Xrotation Yrotation Zrotation
		JOINT left_knee
		{
			OFFSET	-28.2	-396.7	2.2
			CHANNELS 3  Xrotation Yrotation Zrotation
			JOINT left_ankle
			{
				OFFSET	-11.7	-411.3	35.4
				CHANNELS 3  Xrotation Yrotation Zrotation
				JOINT left_toes
				{
					OFFSET	0	-60	-88.6
					CHANNELS 3  Xrotation Yrotation Zrotation
					JOINT left_foot_ee
					{
						OFFSET	-22.5	-16.5	-42.2
						CHANNELS 3  Xrotation Yrotation Zrotation
						End Site
						{
							OFFSET	1	0	0
						}
					}
				}
			}
		}
	}
	JOINT right_hip
	{
		OFFSET	82.8	-127.5	0.300001
		CHANNELS 3  Xrotation Yrotation Zrotation
		JOINT right_knee
		{
			OFFSET	28.2	-396.7	2.2
			CHANNELS 3  Xrotation Yrotation Zrotation
			JOINT right_ankle
			{
				OFFSET	11.7	-411.3	35.4
				CHANNELS 3  Xrotation Yrotation Zrotation
				JOINT right_toes
				{
					OFFSET	0	-60	-88.6
					CHANNELS 3  Xrotation Yrotation Zrotation
					JOINT right_foot_ee
					{
						OFFSET	22.5	-16.5	-42.2
						CHANNELS 3  Xrotation Yrotation Zrotation
						End Site
						{
							OFFSET	1	0	0
						}
					}
				}
			}
		}
	}
}
MOTION
Frames: 14
Frame Time: 0.02
3574.42 741.953 -1474.73 -37.5776916191 82.3741207153 34.8152851101 1.51206 0.146621 1.71793 1.5137 0.0370243 1.72378 1.51494 -0.281302 1.70108 1.5109 -0.00916013 1.72415 -5.8271 7.0924 -3.15455 -5.75196 15.4246 -1.88195 -0.0 0.0 -0.0 -0.32211 23.1149 2.23258 -14.1213 -36.7951 58.2142 1.82797 -42.1576 0.70463 -21.6533 -1.24307 2.45741 -1.63533 12.2394 -5.29558 -0.0 0.0 -0.0 8.52179 16.3207 -16.3639 -33.8327 13.2286 -59.4492 1.16315 29.9491 -0.31112 -17.3551 0.923469 -2.00939 0.331409 6.96521 0.718187 0.0 0.0 0.0 -1.62577 11.2972 5.43159 -0.66755 0.0269113 0.0989081 12.0598 6.97715 -1.70178 10.4714 -0.0 -0.0 -0.0 0.0 -0.0 11.7458 -5.58351 4.91285 -6.87204 -0.221336 -1.0308 4.4033 18.9598 0.716001 -32.8375 0.0 0.0 0.0 0.0 0.0 
3574.42 741.953 -1474.73 -36.7567309166 82.227727386 33.9868573566 1.51206 0.146621 1.71793 1.5137 0.0370243 1.72378 1.51494 -0.281302 1.70108 1.5109 -0.00916013 1.72415 -5.8271 7.0924 -3.15455 -5.75196 15.4246 -1.88195 -0.0 0.0 -0.0 -0.32211 23.1149 2.23258 -14.1213 -36.7951 58.2142 1.82797 -42.1576 0.70463 -21.6533 -1.24307 2.45741 -1.63533 12.2394 -5.29558 -0.0 0.0 -0.0 8.52179 16.3207 -16.3639 -33.8327 13.2286 -59.4492 1.16315 29.9491 -0.31112 -17.3551 0.923469 -2.00939 0.331409 6.96521 0.718187 0.0 0.0 0.0 -1.62577 11.2972 5.43159 -0.66755 0.0269113 0.0989081 12.0598 6.97715 -1.70178 10.4714 -0.0 -0.0 -0.0 0.0 -0.0 11.7458 -5.58351 4.91285 -6.87204 -0.221336 -1.0308 4.4033 18.9598 0.716001 -32.8375 0.0 0.0 0.0 0.0 0.0 
3574.42 741.953 -1474.73 -35.7024232827 82.0287715411 32.922522772 1.51206 0.146621 1.71793 1.5137 0.0370243 1.72378 1.51494 -0.281302 1.70108 1.5109 -0.00916013 1.72415 -5.8271 7.0924 -3.15455 -5.75196 15.4246 -1.88195 -0.0 0.0 -0.0 -0.32211 23.1149 2.23258 -14.1213 -36.7951 58.2142 1.82797 -42.1576 0.70463 -21.6533 -1.24307 2.45741 -1.63533 12.2394 -5.29558 -0.0 0.0 -0.0 8.52179 16.3207 -16.3639 -33.8327 13.2286 -59.4492 1.16315 29.9491 -0.31112 -17.3551 0.923469 -2.00939 0.331409 6.96521 0.718187 0.0 0.0 0.0 -1.62577 11.2972 5.43159 -0.66755 0.0269113 0.0989081 12.0598 6.97715 -1.70178 10.4714 -0.0 -0.0 -0.0 0.0 -0.0 11.7458 -5.58351 4.91285 -6.87204 -0.221336 -1.0308 4.4033 18.9598 0.716001 -32.8375 0.0 0.0 0.0 0.0 0.0 
3574.42 741.953 -1474.73 -32.5875660478 81.3580499646 29.774712105 1.51206 0.146621 1.71793 1.5137 0.0370243 1.72378 1.51494 -0.281302 1.70108 1.5109 -0.00916013 1.72415 -5.8271 7.0924 -3.15455 -5.75196 15.4246 -1.88195 -0.0 0.0 -0.0 -0.32211 23.1149 2.23258 -14.1213 -36.7951 58.2142 1.82797 -42.1576 0.70463 -21.6533 -1.24307 2.45741 -1.63533 12.2394 -5.29558 -0.0 0.0 -0.0 8.52179 16.3207 -16.3639 -33.8327 13.2286 -59.4492 1.16315 29.9491 -0.31112 -17.3551 0.923469 -2.00939 0.331409 6.96521 0.718187 0.0 0.0 0.0 -1.62577 11.2972 5.43159 -0.66755 0.0269113 0.0989081 12.0598 6.97715 -1.70178 10.4714 -0.0 -0.0 -0.0 0.0 -0.0 11.7458 -5.58351 4.91285 -6.87204 -0.221336 -1.0308 4.4033 18.9598 0.716001 -32.8375 0.0 0.0 0.0 0.0 0.0 
3574.42 741.953 -1474.73 -30.1383817099 80.724499417 27.2953278928 1.51206 0.146621 1.71793 1.5137 0.0370243 1.72378 1.51494 -0.281302 1.70108 1.5109 -0.00916013 1.72415 -5.8271 7.0924 -3.15455 -5.75196 15.4246 -1.88195 -0.0 0.0 -0.0 -0.32211 23.1149 2.23258 -14.1213 -36.7951 58.2142 1.82797 -42.1576 0.70463 -21.6533 -1.24307 2.45741 -1.63533 12.2394 -5.29558 -0.0 0.0 -0.0 8.52179 16.3207 -16.3639 -33.8327 13.2286 -59.4492 1.16315 29.9491 -0.31112 -17.3551 0.923469 -2.00939 0.331409 6.96521 0.718187 0.0 0.0 0.0 -1.62577 11.2972 5.43159 -0.66755 0.0269113 0.0989081 12.0598 6.97715 -1.70178 10.4714 -0.0 -0.0 -0.0 0.0 -0.0 11.7458 -5.58351 4.91285 -6.87204 -0.221336 -1.0308 4.4033 18.9598 0.716001 -32.8375 0.0 0.0 0.0 0.0 0.0 
3574.42 741.953 -1474.73 -27.5900110552 79.9366649222 24.7103048939 1.51206 0.146621 1.71793 1.5137 0.0370243 1.72378 1.51494 -0.281302 1.70108 1.5109 -0.00916013 1.72415 -5.8271 7.0924 -3.15455 -5.75196 15.4246 -1.88195 -0.0 0.0 -0.0 -0.32211 23.1149 2.23258 -14.1213 -36.7951 58.2142 1.82797 -42.1576 0.70463 -21.6533 -1.24307 2.45741 -1.63533 12.2394 -5.29558 -0.0 0.0 -0.0 8.52179 16.3207 -16.3639 -33.8327 13.2286 -59.4492 1.16315 29.9491 -0.31112 -17.3551 0.923469 -2.00939 0.331409 6.96521 0.718187 0.0 0.0 0.0 -1.62577 11.2972 5.43159 -0.66755 0.0269113 0.0989081 12.0598 6.97715 -1.70178 10.4714 -0.0 -0.0 -0.0 0.0 -0.0 11.7458 -5.58351 4.91285 -6.87204 -0.221336 -1.0308 4.4033 18.9598 0.716001 -32.8375 0.0 0.0 0.0 0.0 0.0 
3574.42 741.953 -1474.73 -24.8745778352 78.9074038537 21.9480573061 1.51206 0.146621 1.71793 1.5137 0.0370243 1.72378 1.51494 -0.281302 1.70108 1.5109 -0.00916013 1.72415 -5.8271 7.0924 -3.15455 -5.75196 15.4246 -1.88195 -0.0 0.0 -0.0 -0.32211 23.1149 2.23258 -14.1213 -36.7951 58.2142 1.82797 -42.1576 0.70463 -21.6533 -1.24307 2.45741 -1.63533 12.2394 -5.29558 -0.0 0.0 -0.0 8.52179 16.3207 -16.3639 -33.8327 13.2286 -59.4492 1.16315 29.9491 -0.31112 -17.3551 0.923469 -2.00939 0.331409 6.96521 0.718187 0.0 0.0 0.0 -1.62577 11.2972 5.43159 -0.66755 0.0269113 0.0989081 12.0598 6.97715 -1.70178 10.4714 -0.0 -0.0 -0.0 0.0 -0.0 11.7458 -5.58351 4.91285 -6.87204 -0.221336 -1.0308 4.4033 18.9598 0.716001 -32.8375 0.0 0.0 0.0 0.0 0.0 
3571.67316078 737.029 -1478.71955816 -24.8760372032 79.3061154301 21.937285518 1.50751 0.142263 1.67121 1.50906 0.0356462 1.67688 1.51022 -0.274146 1.6547 1.5064 -0.00941358 1.67723 -6.6745 8.18579 -2.81085 -6.62646 17.2211 -1.20005 -0.0 0.0 -0.0 -0.57628 22.7165 1.83201 -15.4178 -37.2443 57.6751 1.85444 -42.5675 0.722464 -21.7087 -1.24742 2.46304 -1.52283 12.116 -4.63968 -0.0 0.0 -0.0 8.67113 16.0775 -16.7055 -32.7921 13.3526 -59.2393 1.13821 29.4149 -0.298771 -17.3111 0.920372 -2.00468 0.32495 6.60223 0.607578 0.0 0.0 0.0 -1.51703 11.4046 5.69642 -2.17334 0.0833647 0.323096 12.1718 6.92344 -1.71689 10.7667 -0.0 -0.0 -0.0 0.0 -0.0 11.3335 -6.89961 4.76117 -6.64742 -0.216066 -0.996733 5.64903 20.2036 0.925163 -32.8182 0.0 0.0 0.0 0.0 0.0 
3571.82564322 737.029 -1478.82035608 -20.8174262652 77.3121771171 17.7933968145 1.50751 0.142263 1.67121 1.50906 0.0356462 1.67688 1.51022 -0.274146 1.6547 1.5064 -0.00941358 1.67723 -6.6745 8.18579 -2.81085 -6.62646 17.2211 -1.20005 -0.0 0.0 -0.0 -0.57628 22.7165 1.83201 -15.4178 -37.2443 57.6751 1.85444 -42.5675 0.722464 -21.7087 -1.24742 2.46304 -1.52283 12.116 -4.63968 -0.0 0.0 -0.0 8.67113 16.0775 -16.7055 -32.7921 13.3526 -59.2393 1.13821 29.4149 -0.298771 -17.3111 0.920372 -2.00468 0.32495 6.60223 0.607578 0.0 0.0 0.0 -1.51703 11.4046 5.69642 -2.17334 0.0833647 0.323096 12.1718 6.92344 -1.71689 10.7667 -0.0 -0.0 -0.0 0.0 -0.0 11.3335 -6.89961 4.76117 -6.64742 -0.216066 -0.996733 5.64903 20.2036 0.925163 -32.8182 0.0 0.0 0.0 0.0 0.0 
3556.57362316 732.292 -1479.76521931 -19.337927471 77.8953434971 15.5203783549 1.47166 0.692825 1.65362 1.47299 0.586213 1.69434 1.49074 0.263415 1.7734 1.48676 0.540144 1.70958 -8.67708 9.98237 -3.616 -8.70682 21.1979 -1.26095 -0.0 0.0 -0.0 -0.503688 22.9581 1.96291 -18.1741 -36.6154 57.9907 1.85916 -42.64 0.725658 -21.9385 -1.26547 2.48629 -1.44217 11.9734 -4.19401 -0.0 0.0 -0.0 8.92358 16.8588 -17.216 -29.7538 14.2668 -58.1346 1.12388 29.1054 -0.291768 -16.9731 0.896714 -1.96845 0.25253 5.33428 0.558147 0.0 0.0 0.0 -0.195561 12.2176 5.93466 -8.48549 0.255263 1.27606 10.906 7.10829 -1.54538 11.0427 -0.0 -0.0 -0.0 0.0 -0.0 9.50422 -10.7612 6.6685 -6.00089 -0.20015 -0.898792 9.18146 22.3779 1.51571 -32.4924 0.0 0.0 0.0 0.0 0.0 
3549.32139065 727.596 -1484.33470244 -13.9121791562 76.3239480043 9.79437915662 1.31451 0.774717 1.58269 1.31566 0.67245 1.62876 1.33528 0.355628 1.72583 1.33166 0.623692 1.64804 -9.07236 11.7102 -5.58795 -9.11078 25.7935 -2.7043 -0.0 0.0 -0.0 -0.429273 22.7699 2.04281 -18.9347 -35.014 58.8786 1.80313 -41.7679 0.688018 -21.9852 -1.26914 2.491 -1.44154 12.0937 -4.13459 -0.0 0.0 -0.0 9.12868 17.2162 -17.6476 -28.5793 14.8683 -57.8393 1.11934 29.007 -0.289563 -17.464 0.931145 -2.02103 0.210341 4.67905 0.564863 0.0 0.0 0.0 3.90349 13.0941 5.00969 -21.8453 0.26915 3.32126 14.2115 9.05244 -1.98951 11.2354 -0.0 -0.0 -0.0 0.0 -0.0 8.46246 -12.7461 8.07645 -5.83221 -0.195816 -0.873269 11.7218 25.2822 1.97503 -32.2957 0.0 0.0 0.0 0.0 0.0 
3532.77390057 716.663 -1491.42905692 -10.9198774715 77.7955883041 6.36245837513 1.07591 0.527 1.56877 1.07717 0.42612 1.59912 1.08954 0.112014 1.65111 1.08593 0.371336 1.61271 -10.2691 15.4482 -7.38311 -10.5355 34.0118 -3.10379 -0.0 0.0 -0.0 -0.929844 21.6394 1.19306 -21.9433 -33.2523 59.5545 1.72544 -40.518 0.636897 -21.1044 -1.20039 2.40154 -1.42911 12.2452 -3.98625 -0.0 0.0 -0.0 9.66433 18.3651 -18.7651 -26.2735 16.0435 -57.0892 1.1175 28.9671 -0.288672 -17.8164 0.956143 -2.05859 -0.0299384 0.583099 0.446152 0.0 0.0 0.0 9.39482 8.82062 4.18368 -33.061 -0.0852995 5.0033 20.481 14.625 -2.81444 8.30021 -0.0 -0.0 -0.0 0.0 -0.0 6.93611 -15.7637 9.59029 -10.41 -0.286676 -1.56968 20.7465 31.2377 3.59254 -31.937 0.0 0.0 0.0 0.0 0.0 
3514.58864768 708.106 -1503.72511475 -10.2252988813 84.3488943623 5.94341723577 0.97503 0.148667 1.61307 0.976476 0.0457355 1.61926 0.978086 -0.268449 1.59751 0.974525 -0.0128171 1.61985 -10.566 18.1196 -6.98936 -11.0879 38.7802 -1.77175 -0.0 0.0 -0.0 -1.71252 20.2149 -0.147799 -26.2939 -33.0122 59.894 1.73609 -40.6922 0.643829 -20.7426 -1.17255 2.36449 -1.32491 11.0682 -3.86235 -0.0 0.0 -0.0 10.3914 19.0109 -20.3496 -25.2255 17.1257 -57.3388 1.1244 29.1166 -0.292018 -17.4913 0.933076 -2.02395 -0.331558 -3.87284 0.563812 0.0 0.0 0.0 10.3122 3.85995 4.80484 -36.5205 -0.260371 5.50502 26.096 16.0974 -3.50505 5.12367 -0.0 -0.0 -0.0 0.0 -0.0 8.61552 -17.9265 9.38597 -17.3513 -0.317766 -2.6336 28.1668 30.2478 4.58705 -32.1994 0.0 0.0 0.0 0.0 0.0 
3516.06988511 708.106 -1506.60117024 -6.86479137781 81.5905055236 2.5584476861 0.97503 0.148667 1.61307 0.976476 0.0457355 1.61926 0.978086 -0.268449 1.59751 0.974525 -0.0128171 1.61985 -10.566 18.1196 -6.98936 -11.0879 38.7802 -1.77175 -0.0 0.0 -0.0 -1.71252 20.2149 -0.147799 -26.2939 -33.0122 59.894 1.73609 -40.6922 0.643829 -20.7426 -1.17255 2.36449 -1.32491 11.0682 -3.86235 -0.0 0.0 -0.0 10.3914 19.0109 -20.3496 -25.2255 17.1257 -57.3388 1.1244 29.1166 -0.292018 -17.4913 0.933076 -2.02395 -0.331558 -3.87284 0.563812 0.0 0.0 0.0 10.3122 3.85995 4.80484 -36.5205 -0.260371 5.50502 26.096 16.0974 -3.50505 5.12367 -0.0 -0.0 -0.0 0.0 -0.0 8.61552 -17.9265 9.38597 -17.3513 -0.317766 -2.6336 28.1668 30.2478 4.58705 -32.1994 0.0 0.0 0.0 0.0 0.0 
